<svg id="form_icon04.svg" xmlns="http://www.w3.org/2000/svg" width="172" height="110" viewBox="0 0 172 110">
  <defs>
    <style>
      .cls-1, .cls-2 {
        fill: #d2d2d2;
        fill-rule: evenodd;
      }

      .cls-1 {
        stroke: #f5f5f5;
        stroke-linejoin: round;
        stroke-width: 2px;
      }
    </style>
  </defs>
  <path id="シェイプ_18" data-name="シェイプ 18" class="cls-1" d="M1249.54,2498a1.835,1.835,0,0,0-2.59-.16l-5.41,4.76-15.28,13.45a5.342,5.342,0,0,1-4.56,1.18l-8.73-1.92-10.55-2.32-7.39-1.63-1.06-.23a3.1,3.1,0,0,1-.89-0.45,3.2,3.2,0,0,1-1.34-2.62,3.611,3.611,0,0,1,.14-0.97,3.36,3.36,0,0,1,.49-0.94,3,3,0,0,1,1.15-.97,3.1,3.1,0,0,1,1.47-.36c0.09,0,.18.01,0.26,0.01l7.63,1.64,17.68,3.8a7.051,7.051,0,0,0,6.15-1.59l10.87-9.53,11.1-9.72a3.452,3.452,0,0,0,1.07-3.51,3.5,3.5,0,0,0-2.66-2.55l-1.39-.3-10.08-2.17-12.77-2.74a7.026,7.026,0,0,0-6.15,1.6l-17.06,14.9-5.13,4.48-4.46,3.9a3.689,3.689,0,0,0-.48.64,2.205,2.205,0,0,0-.22.29,6.946,6.946,0,0,0-1.03,2.01,6.783,6.783,0,0,0-.32,2.08,6.978,6.978,0,0,0,2.88,5.62,6.716,6.716,0,0,0,2.02,1.01l0.08,0.03,7.78,1.69,7.37,1.6,12.8,2.79a8.52,8.52,0,0,0,1.88.2,8.978,8.978,0,0,0,5.88-2.2l0.44-.39,15.19-13.37,5.06-4.46A1.824,1.824,0,0,0,1249.54,2498Z" transform="translate(-1087 -2470)"/>
  <path id="シェイプ_19" data-name="シェイプ 19" class="cls-2" d="M1258.41,2525.24l-4.98-1.31a4.719,4.719,0,0,1-3.36-3.36l-1.31-4.98a0.784,0.784,0,0,0-1.52,0l-1.31,4.98a4.719,4.719,0,0,1-3.36,3.36l-4.98,1.31a0.784,0.784,0,0,0,0,1.52l4.98,1.31a4.719,4.719,0,0,1,3.36,3.36l1.31,4.98a0.784,0.784,0,0,0,1.52,0l1.31-4.98a4.719,4.719,0,0,1,3.36-3.36l4.98-1.31A0.784,0.784,0,0,0,1258.41,2525.24Z" transform="translate(-1087 -2470)"/>
  <path id="シェイプ_23" data-name="シェイプ 23" class="cls-2" d="M1133.5,2538.02h17.85a6.535,6.535,0,0,0,0-13.07H1125.4c-16.23,0-21.36,6.81-27.04,12.52l-10.31,9.06a3.123,3.123,0,0,0-1.05,2.33v30.11a1.019,1.019,0,0,0,.6.93,0.994,0.994,0,0,0,1.09-.16l19.91-17.18a3.107,3.107,0,0,1,2.55-.69l31.03,5.68a8.126,8.126,0,0,0,6.19-1.38s39.61-27.73,42.53-30.18h0c2.79-2.58,2.75-6.31.2-9.11-2.56-2.82-7.34-2.22-10.52.15-2.92,2.45-22.85,15.64-22.85,15.64H1133.5l-0.07.04a2.326,2.326,0,0,1,.15-4.65Zm29.27-68.02a16.24,16.24,0,0,0-13.91,7.91,23.992,23.992,0,0,1,15.65,22.5c0,0.77-.04,1.52-0.11,2.26A16.382,16.382,0,0,0,1162.77,2470Zm-22.08,11.7a18.715,18.715,0,1,0,18.6,18.71A18.657,18.657,0,0,0,1140.69,2481.7Zm7.39,17.18h-5.09l-0.55.86v2.05h5.64v2.91h-5.64v4.4h-3.5v-4.4h-5.64v-2.91h5.64v-2.05l-0.54-.86h-5.1v-2.49h3.5l-2.97-4.66h2.97l3.89,6.1,3.9-6.1h2.97l-2.98,4.66h3.5v2.49h0Z" transform="translate(-1087 -2470)"/>
</svg>
