<svg id="form_icon01.svg" xmlns="http://www.w3.org/2000/svg" width="154" height="122" viewBox="0 0 154 122">
  <defs>
    <style>
      .cls-1, .cls-2 {
        fill: #d2d2d2;
        fill-rule: evenodd;
      }

      .cls-2 {
        stroke: #f5f5f5;
        stroke-linejoin: round;
        stroke-width: 2px;
      }
    </style>
  </defs>
  <path id="シェイプ_17" data-name="シェイプ 17" class="cls-1" d="M351,2488.49a14.08,14.08,0,0,0-10.081,4.25,14.713,14.713,0,0,0,0,20.56,14.1,14.1,0,0,0,20.16,0,14.713,14.713,0,0,0,0-20.56A14.083,14.083,0,0,0,351,2488.49Zm0,23.48a8.956,8.956,0,1,1,8.808-8.95A8.874,8.874,0,0,1,351,2511.97Zm39.5-33.88a8.5,8.5,0,0,0-6.052-2.55H375.2a1.942,1.942,0,0,1-1.762-1.17l-2.772-6.26a8.555,8.555,0,0,0-7.8-5.11H339.139a8.563,8.563,0,0,0-7.805,5.11l-2.77,6.26a1.941,1.941,0,0,1-1.76,1.17H317.55a8.525,8.525,0,0,0-6.058,2.55A8.715,8.715,0,0,0,309,2484.2v40.14a8.721,8.721,0,0,0,2.492,6.12,8.516,8.516,0,0,0,6.058,2.54h66.9a8.495,8.495,0,0,0,6.052-2.54,8.7,8.7,0,0,0,2.5-6.12V2484.2A8.7,8.7,0,0,0,390.5,2478.09Zm-25.81,38.82a19.131,19.131,0,0,1-27.385,0,19.871,19.871,0,0,1,0-27.78,19.131,19.131,0,0,1,27.385,0A19.871,19.871,0,0,1,364.692,2516.91Zm20.1-25.76h-5.872v-5.92h5.872v5.92Z" transform="translate(-239 -2463)"/>
  <path id="シェイプ_18" data-name="シェイプ 18" class="cls-2" d="M328.348,2549.37a2.564,2.564,0,0,0-3.635-.23l-7.59,6.76-21.442,19.07a7.276,7.276,0,0,1-4.84,1.84,7.419,7.419,0,0,1-1.548-.16l-12.255-2.73-14.8-3.28-10.378-2.31-1.484-.33a4.329,4.329,0,0,1-1.253-.65,4.486,4.486,0,0,1-1.378-1.62,4.6,4.6,0,0,1-.5-2.09,4.945,4.945,0,0,1,.207-1.37,5.054,5.054,0,0,1,.677-1.34,4.393,4.393,0,0,1,1.62-1.38,4.441,4.441,0,0,1,2.065-.5c0.122,0,.244.01,0.367,0.01l10.7,2.32,24.808,5.39a9.815,9.815,0,0,0,8.635-2.25l15.252-13.51,15.575-13.79a5,5,0,0,0-2.236-8.61l-1.941-.42-14.148-3.07-17.919-3.89a9.793,9.793,0,0,0-8.634,2.26l-23.934,21.14-7.2,6.36-6.263,5.53a6.412,6.412,0,0,0-.675.91,4.06,4.06,0,0,0-.308.41,9.89,9.89,0,0,0-1.436,2.85,9.763,9.763,0,0,0-.454,2.95,9.9,9.9,0,0,0,1.866,5.78,9.868,9.868,0,0,0,5.01,3.63l0.112,0.03,10.917,2.41,10.341,2.27,17.956,3.95a11.772,11.772,0,0,0,2.639.29,12.457,12.457,0,0,0,8.254-3.13l0.613-.54,21.32-18.97,7.1-6.32A2.613,2.613,0,0,0,328.348,2549.37Z" transform="translate(-239 -2463)"/>
</svg>
