<svg id="form_icon02.svg" xmlns="http://www.w3.org/2000/svg" width="162.969" height="77.03" viewBox="0 0 162.969 77.03">
  <defs>
    <style>
      .cls-1, .cls-2 {
        fill: #d2d2d2;
        fill-rule: evenodd;
      }

      .cls-2 {
        stroke: #f5f5f5;
        stroke-linejoin: round;
        stroke-width: 2px;
      }
    </style>
  </defs>
  <path id="シェイプ_20" data-name="シェイプ 20" class="cls-1" d="M596.556,2488.52a9.875,9.875,0,0,0-3.1-3.65,9.518,9.518,0,0,0-.843-0.55,9.933,9.933,0,0,0-7.512-1l-49.781,13.27a9.825,9.825,0,0,0-6,4.6,8.465,8.465,0,0,0-.455.89,9.727,9.727,0,0,0-.839,4.7,9.568,9.568,0,0,0,.315,1.91l9.422,34.97a9.873,9.873,0,0,0,1.815,3.58,9.723,9.723,0,0,0,2.806,2.43c0.271,0.15.537,0.29,0.821,0.43a9.989,9.989,0,0,0,6.69.57l49.781-13.27a9.743,9.743,0,0,0,5.5-3.83,7.518,7.518,0,0,0,.5-0.77,9.831,9.831,0,0,0,1.22-3.5h0a9.787,9.787,0,0,0-.238-4l-9.423-34.96A10.161,10.161,0,0,0,596.556,2488.52Zm-62.846,15.2a4.73,4.73,0,0,1,2.929-2.24l49.781-13.27a4.831,4.831,0,0,1,3.667.49,5.266,5.266,0,0,1,.551.38l-19.963,29.69a3.881,3.881,0,0,1-2.262,1.62,4,4,0,0,1-2.77-.27l-32.213-15.81A3.939,3.939,0,0,1,533.71,2503.72Zm8.942,38.63-8.819-32.72,23.322,11.44-14.438,21.49A1.671,1.671,0,0,1,542.652,2542.35Zm55.706-9.84-49.781,13.27a4.831,4.831,0,0,1-2.476,0l15.235-22.66,2.295,1.12a8.561,8.561,0,0,0,10.871-2.89l1.423-2.12,24.58,12.06A4.7,4.7,0,0,1,598.358,2532.51Zm3.41-5.91a1.789,1.789,0,0,1,.046.21l-23.3-11.42,14.442-21.5Z" transform="translate(-528.031 -2482.97)"/>
  <path id="シェイプ_21" data-name="シェイプ 21" class="cls-2" d="M674.462,2517.57c11.317-2.59,14.626-4.13,13.266-5.3-14.939-7.94-35.494-16.91-46.017-9.17-3.231,2.37-5.92,8.59-8.579,13.63-2.581-4.34-4.316-7.66-4.8-8.66-2.963-6.13-6.49-10.34-12.721-10.5-5.7-.14-7.334,4.94-13.463,5.95-1.719.28-1.185,0.99,0.5,1.38,5.072,1.18,10.406,3.62,10.484,7.84,0.062,3.3-1.6,18.45,9.311,29.2s26.492,8.38,28.723,8.98,14.257,8.3,14.6,5.46c1.375-11.22,12.3-17.85,8.256-17.25-5.048.75-21.5,3.27-25.225-.74-0.044-.05-0.086-0.1-0.129-0.14C658,2532.63,659.48,2521,674.462,2517.57Z" transform="translate(-528.031 -2482.97)"/>
</svg>
