<svg id="form_icon03.svg" xmlns="http://www.w3.org/2000/svg" width="172" height="132.97" viewBox="0 0 172 132.97">
  <defs>
    <style>
      .cls-1, .cls-2 {
        fill: #d2d2d2;
        fill-rule: evenodd;
      }

      .cls-2 {
        stroke: #f5f5f5;
        stroke-linejoin: round;
        stroke-width: 2px;
      }
    </style>
  </defs>
  <path id="シェイプ_22" data-name="シェイプ 22" class="cls-1" d="M904.51,2470.76l-8.6-2.31-1.474,5.51a9.815,9.815,0,0,1-.721,1.88l9.724,2.6a2.034,2.034,0,0,1,1.426,2.49l-20.3,75.81a2.027,2.027,0,0,1-2.476,1.44l-64.927-17.41a2.024,2.024,0,0,1-1.426-2.48l20.3-75.82a2.027,2.027,0,0,1,2.476-1.44l9.725,2.61a9.739,9.739,0,0,1,.314-1.99l1.474-5.5-8.6-2.31a10.129,10.129,0,0,0-12.38,7.19l-20.683,77.25a10.124,10.124,0,0,0,7.129,12.42l63.085,16.92a10.129,10.129,0,0,0,12.38-7.19l20.683-77.25A10.124,10.124,0,0,0,904.51,2470.76Zm-48.24-.73,27.3,7.32a6.082,6.082,0,0,0,7.429-4.32l0.18-.67,1.216-4.54,0.181-.68a6.076,6.076,0,0,0-4.278-7.45l-7.4-1.98a6.495,6.495,0,0,0-12.5-3.36L861,2452.37a6.067,6.067,0,0,0-7.428,4.31l-0.181.68-1.216,4.54-0.18.68A6.075,6.075,0,0,0,856.27,2470.03Zm18.994-16.31a2.987,2.987,0,1,1-3.64,2.12A2.981,2.981,0,0,1,875.264,2453.72Zm-1.9,40.12-34.278-9.19,1.367-5.1,34.277,9.19Zm-22,8.47-15.869-4.26,1.367-5.1,15.869,4.25Zm-3.549,13.46-15.869-4.25,1.366-5.1,15.869,4.25Zm5.742,9.57a14.149,14.149,0,0,0,1.392,10.72A13.963,13.963,0,0,0,871,2542.54l4.806,8.37a3.383,3.383,0,0,0,4.632,1.25,3.426,3.426,0,0,0,1.247-4.66l-4.8-8.37a14.153,14.153,0,0,0,2.442-17.22,14.01,14.01,0,0,0-19.2-5.15A14.136,14.136,0,0,0,853.563,2525.34Zm5.241,1.41a8.641,8.641,0,0,1,10.578-6.14,8.539,8.539,0,0,1,5.237,4.03,8.706,8.706,0,0,1-3.173,11.85A8.632,8.632,0,0,1,858.8,2526.75Z" transform="translate(-808 -2450.03)"/>
  <path id="シェイプ_20" data-name="シェイプ 20" class="cls-2" d="M966.373,2517.51a9.875,9.875,0,0,0-3.1-3.65,9.518,9.518,0,0,0-.843-0.55,9.933,9.933,0,0,0-7.512-1l-49.781,13.27a9.823,9.823,0,0,0-6,4.6,8.465,8.465,0,0,0-.455.89,9.715,9.715,0,0,0-.839,4.7,9.5,9.5,0,0,0,.315,1.91l9.422,34.97a9.873,9.873,0,0,0,1.815,3.58,9.723,9.723,0,0,0,2.806,2.43c0.271,0.15.537,0.29,0.821,0.43a9.989,9.989,0,0,0,6.69.57l49.781-13.27a9.737,9.737,0,0,0,5.5-3.83,7.524,7.524,0,0,0,.5-0.77,9.9,9.9,0,0,0,1.22-3.5h0a9.8,9.8,0,0,0-.238-4l-9.423-34.97A10.433,10.433,0,0,0,966.373,2517.51Zm-62.846,15.2a4.73,4.73,0,0,1,2.929-2.24l49.781-13.27a4.787,4.787,0,0,1,3.667.49,5.266,5.266,0,0,1,.551.38l-19.964,29.69a3.876,3.876,0,0,1-2.261,1.62,3.945,3.945,0,0,1-2.77-.28l-32.213-15.8A3.939,3.939,0,0,1,903.527,2532.71Zm8.942,38.63-8.819-32.72,23.321,11.44-14.437,21.48A1.379,1.379,0,0,1,912.469,2571.34Zm55.706-9.84-49.781,13.27a4.831,4.831,0,0,1-2.476,0l15.235-22.66,2.295,1.12a8.561,8.561,0,0,0,10.871-2.89l1.422-2.12,24.581,12.05A4.632,4.632,0,0,1,968.175,2561.5Zm3.41-5.91a1.436,1.436,0,0,1,.046.21l-23.3-11.42,14.441-21.5Z" transform="translate(-808 -2450.03)"/>
</svg>
