<svg xmlns="http://www.w3.org/2000/svg" width="72.03" height="50" viewBox="0 0 72.03 50">
  <defs>
    <style>
      .cls-1 {
        fill: #d2d2d2;
        fill-rule: evenodd;
      }
    </style>
  </defs>
  <path id="system_icon03.svg" class="cls-1" d="M1079.35,1806.25a2.133,2.133,0,0,0-3.01-.18l-6.28,5.53-17.75,15.64a6.051,6.051,0,0,1-4,1.51,6.179,6.179,0,0,1-1.28-.13l-10.15-2.24-12.24-2.69-8.59-1.9-1.23-.27a3.517,3.517,0,0,1-1.04-.53,3.743,3.743,0,0,1-1.55-3.04,3.953,3.953,0,0,1,.17-1.12,3.806,3.806,0,0,1,.56-1.1,3.578,3.578,0,0,1,1.34-1.13,3.688,3.688,0,0,1,1.71-.41h0.3l8.85,1.91,20.54,4.42a8.171,8.171,0,0,0,7.14-1.85l12.62-11.07,12.89-11.31a4.073,4.073,0,0,0-1.85-7.05l-1.6-.35-11.71-2.52-14.83-3.18a8.169,8.169,0,0,0-7.15,1.85l-19.81,17.33-5.95,5.21-5.19,4.53a5.85,5.85,0,0,0-.56.75,4.081,4.081,0,0,0-.25.33,7.992,7.992,0,0,0-1.56,4.76,8.039,8.039,0,0,0,1.54,4.74,8.3,8.3,0,0,0,1.8,1.8,7.839,7.839,0,0,0,2.35,1.17l0.09,0.03,9.03,1.97,8.56,1.87,14.86,3.23a9.545,9.545,0,0,0,2.19.24,10.366,10.366,0,0,0,6.83-2.56l0.51-.45,17.64-15.55,5.88-5.18A2.134,2.134,0,0,0,1079.35,1806.25Z" transform="translate(-1007.88 -1783)"/>
</svg>
