<svg xmlns="http://www.w3.org/2000/svg" width="64" height="63" viewBox="0 0 64 63">
  <defs>
    <style>
      .cls-1 {
        fill: #d2d2d2;
        fill-rule: evenodd;
      }
    </style>
  </defs>
  <path id="system_icon01.svg" class="cls-1" d="M481.232,1787.49l-19.767-10.14a12.244,12.244,0,0,0-11.178,0l-19.767,10.14a12.229,12.229,0,0,0-6.645,10.87v18.27a12.217,12.217,0,0,0,6.645,10.87l19.767,10.15a12.242,12.242,0,0,0,11.177,0l19.768-10.15a12.217,12.217,0,0,0,6.645-10.87v-18.27A12.229,12.229,0,0,0,481.232,1787.49Zm-49.035,3.26,19.766-10.14a8.532,8.532,0,0,1,7.825,0l7.683,3.94-27.26,13.99h0l-10.781-5.53A8.587,8.587,0,0,1,432.2,1790.75Zm22.456,44.48a8.408,8.408,0,0,1-2.69-.84L432.2,1824.24a8.546,8.546,0,0,1-4.653-7.61v-18.27a8.537,8.537,0,0,1,.651-3.24l26.458,13.58v26.53h0Zm-12.438-35.66,27.264-13.99,10.076,5.17a8.6,8.6,0,0,1,2.765,2.26l-26.444,13.57Zm41.993,17.06a8.546,8.546,0,0,1-4.653,7.61l-19.767,10.15a8.652,8.652,0,0,1-2.689.84V1808.7l26.458-13.58a8.537,8.537,0,0,1,.651,3.24v18.27h0Zm-49.07-9.42,8.56,4.04c1.1,0.52,1.987.05,1.987-1.05a3.612,3.612,0,0,0-1.987-2.92l-8.56-4.04c-1.1-.52-1.988-0.05-1.988,1.04A3.615,3.615,0,0,0,435.138,1807.21Z" transform="translate(-423.875 -1776)"/>
</svg>
